# xmcd
#
# Track frame offsets: 
#        150
#        22243
#        40754
#        68282
#        96168
#        123551
#        152957
#        178590
#        203613
#        222699
#        248635
#        273690
#
# Disc length: 4012 seconds
#
# Revision: 1
# Processed by: cddbd v1.5.2PL0 Copyright (c) Steve Scherf et al.
# Submitted via: ExactAudioCopy v1.0b3
#
DISCID=ae0faa0c
DTITLE=長渕剛 - 昭和 (紙ジャケット仕様) 24bit Remastering TOCT-25954
DYEAR=2006
DGENRE=JPop
TTITLE0=くそったれの人生
TTITLE1=GO STRAIGHT
TTITLE2=いつかの少年
TTITLE3=とんぼ
TTITLE4=シェリー
TTITLE5=激愛
TTITLE6=NEVER CHANGE
TTITLE7=プンプンプン
TTITLE8=裸足のまんまで
TTITLE9=ほんまにうち寂しかったんよ
TTITLE10=明け方までにはケリがつく
TTITLE11=昭和
EXTD=
EXTT0=
EXTT1=
EXTT2=
EXTT3=
EXTT4=
EXTT5=
EXTT6=
EXTT7=
EXTT8=
EXTT9=
EXTT10=
EXTT11=
PLAYORDER=
